<svg t="1629964946154" class="icon" viewBox="0 0 1083 1024" version="1.1" xmlns="http://www.w3.org/2000/svg" p-id="6853" width="32" height="32"><path d="M31.017989 257.695831h216.719577c8.213672 0 16.091429 3.28872 21.894095 9.150984a31.380995 31.380995 0 0 1 9.069715 22.089143v702.805333c0 8.289524-3.26163 16.232296-9.069715 22.089143a30.822942 30.822942 0 0 1-21.888677 9.145566h-216.719577c-17.104593 0-30.96381-13.983831-30.963809-31.234709V288.941376c0-8.289524 3.26163-16.232296 9.069714-22.089143a30.822942 30.822942 0 0 1 21.888677-9.150984zM433.498751 0h216.719577c8.213672 0 16.091429 3.28872 21.888677 9.150984a31.380995 31.380995 0 0 1 9.069715 22.083725v960.506582c0 17.250878-13.859217 31.234709-30.958392 31.234709H433.498751c-17.099175 0-30.958392-13.983831-30.958391-31.234709V31.240127c0-8.289524 3.26163-16.232296 9.064296-22.089143A30.822942 30.822942 0 0 1 433.498751 0z m402.480762 468.536889h216.719577c8.208254 0 16.086011 3.294138 21.888677 9.150984A31.380995 31.380995 0 0 1 1083.657481 499.777016v491.964275c0 17.250878-13.859217 31.234709-30.958391 31.234709h-216.719577a30.822942 30.822942 0 0 1-21.888677-9.145566 31.375577 31.375577 0 0 1-9.075132-22.089143V499.777016c0-8.289524 3.26163-16.232296 9.069714-22.089143a30.822942 30.822942 0 0 1 21.888677-9.150984z" p-id="6854"></path></svg>