<svg t="1630054404711" class="icon" viewBox="0 0 1024 1024" version="1.1" xmlns="http://www.w3.org/2000/svg" p-id="1957" width="32" height="32"><path d="M925.104356 153.3952l-153.281422 143.132444 153.144889 143.018667c8.897422 8.897422 8.897422 23.301689 0 32.176356-8.920178 8.874667-23.278933 8.874667-32.176356 0l-154.305422-144.065422-154.305422 144.065422c-8.897422 8.874667-23.278933 8.874667-32.176356 0s-8.897422-23.278933 0-32.176356l153.144889-143.018667-153.281422-143.132444c-8.897422-8.897422-8.897422-23.278933 0-32.176356 8.897422-8.897422 23.278933-8.897422 32.176356 0l154.441956 144.201956 154.441956-144.201956c8.897422-8.897422 23.278933-8.897422 32.176356 0C934.001778 130.116267 934.001778 144.520533 925.104356 153.3952zM408.189156 182.044444l-22.755556 0-182.044444 0c-25.122133 0-45.511111 20.388978-45.511111 45.511111l0 546.133333c0 25.122133 20.388978 45.511111 45.511111 45.511111l591.644444 0c25.122133 0 45.511111-20.388978 45.511111-45.511111l0-91.022222 0-91.022222 0-22.755556c0-12.583822 10.171733-22.755556 22.755556-22.755556 12.606578 0 22.755556 10.171733 22.755556 22.755556l0 22.755556 0 91.022222 0 113.777778c0 37.705956-30.583467 68.266667-68.266667 68.266667l-637.155556 0c-37.705956 0-68.266667-30.560711-68.266667-68.266667L112.366933 204.8c0-37.705956 30.560711-68.266667 68.266667-68.266667l204.8 0 22.755556 0c12.561067 0 22.755556 10.194489 22.755556 22.755556S420.750222 182.044444 408.189156 182.044444z" p-id="1958" data-spm-anchor-id="a313x.7781069.0.i10" class="selected" fill="#ffffff"></path></svg>