<svg t="1629965150042" class="icon" viewBox="0 0 1024 1024" version="1.1" xmlns="http://www.w3.org/2000/svg" p-id="13860" width="32" height="32"><path d="M906.14784 11.70432c-23.42912 4.8128-44.96384 22.58944-55.83872 45.58848-6.06208 12.75904-6.69696 15.89248-6.69696 34.29376v20.49024l-64.62464 34.5088c-35.55328 19.02592-65.87392 34.5088-67.33824 34.5088-1.67936 0-2.92864-0.83968-2.92864-1.88416s-4.59776-5.43744-10.45504-9.61536c-39.7312-29.07136-94.32064-17.77664-120.24832 24.8832-1.88416 3.13344-7.1168 2.304-54.3744-9.20576-28.65152-6.90176-55.62368-13.58848-60.01664-14.848-7.10656-1.88416-7.74144-2.5088-8.99072-12.12416-3.34848-24.25856-21.12512-48.73216-43.28448-59.5968-17.77664-8.78592-36.17792-11.07968-53.32992-6.69696-26.76736 6.48192-44.7488 21.32992-56.46336 46.42816-5.23264 11.07968-5.85728 14.42816-5.64224 34.5088v22.1696l-67.76832 40.35584c-46.21312 27.60704-68.59776 39.94624-70.26688 38.48192-22.58944-17.152-38.68672-22.58944-61.696-21.32992C35.1232 256.17408 0.62464 324.13696 33.65888 376.00256c8.36608 13.17888 18.61632 21.95456 35.13344 29.696 12.12416 5.64224 15.68768 6.48192 32.62464 6.48192 17.5616 0 19.8656-0.62464 34.7136-7.74144 18.82112-9.41056 28.85632-19.8656 37.84704-38.90176 5.43744-11.71456 6.48192-16.51712 6.48192-30.74048 0.2048-9.20576-0.41984-19.02592-1.25952-21.95456-1.46432-5.23264 1.04448-6.90176 67.75808-46.848l69.2224-41.19552 6.48192 5.85728c8.99072 8.36608 15.0528 11.91936 28.02688 16.09728 16.31232 5.43744 41.61536 3.97312 57.30304-3.34848 13.80352-6.27712 30.53568-21.12512 36.39296-32 2.08896-3.97312 4.39296-7.3216 5.0176-7.3216s27.392 6.48192 59.392 14.22336l58.55232 14.00832 2.5088 13.80352c6.48192 34.9184 29.4912 58.76736 63.36512 65.66912 36.80256 7.74144 72.57088-10.25024 88.66816-44.544 5.85728-12.3392 6.69696-16.31232 6.90176-33.66912l0.21504-19.6608 66.29376-35.55328 66.08896-35.33824 8.57088 7.74144c4.8128 4.39296 14.00832 10.25024 20.50048 13.38368 10.25024 4.8128 14.42816 5.43744 32.62464 5.43744 19.44576 0 21.95456-0.41984 34.7136-6.69696 16.73216-8.36608 31.36512-23.21408 39.10656-39.94624 4.8128-10.25024 5.64224-14.6432 5.64224-31.78496 0-19.02592-0.41984-20.91008-7.74144-35.97312-9.19552-18.40128-19.8656-28.85632-38.06208-37.43744-14.21312-6.66624-35.96288-9.17504-50.59584-6.0416zM826.6752 345.05728c-3.55328 1.66912-7.1168 4.39296-7.94624 6.48192-0.62464 1.88416-1.24928 149.31968-1.24928 327.49568v324.1472l5.23264 5.23264 5.23264 5.23264 88.87296-0.62464c81.98144-0.62464 89.088-0.83968 92.43648-4.39296 3.55328-3.55328 3.76832-19.8656 4.39296-327.28064 0.41984-232.97024-0.2048-325.19168-1.88416-329.1648-1.25952-3.13344-5.0176-6.48192-8.58112-7.74144-10.25024-3.57376-168.1408-2.93888-176.50688 0.6144zM285.45024 432.26112l-5.43744 4.17792V1004.8512l5.43744 4.17792c5.43744 4.17792 7.74144 4.39296 90.97216 4.39296 59.392 0 86.99904-0.62464 90.55232-2.304 2.92864-1.46432 6.27712-5.23264 7.5264-8.78592 3.13344-8.99072 2.92864-554.60864-0.21504-563.80416-1.25952-3.55328-3.97312-7.5264-6.06208-8.57088-2.304-1.25952-38.06208-2.08896-90.55232-2.08896-84.48 0-86.784 0.21504-92.22144 4.39296zM555.43808 499.39456c-1.88416 1.46432-4.39296 5.43744-5.64224 8.57088-2.92864 8.16128-2.92864 485.59104 0 494.37696 1.24928 3.55328 4.59776 7.3216 7.5264 8.78592 3.55328 1.66912 31.16032 2.304 90.55232 2.304 83.23072 0 85.53472-0.2048 90.97216-4.39296l5.43744-4.17792v-499.4048l-5.43744-4.17792c-5.43744-4.17792-7.74144-4.39296-92.64128-4.39296-66.5088 0-88.05376 0.62464-90.76736 2.5088zM15.47264 594.1248L10.24 599.1424v404.02944l5.23264 5.0176 5.0176 5.23264h176.08704l5.0176-5.23264 5.23264-5.0176V599.1424l-5.23264-5.0176-5.0176-5.23264H20.49024l-5.0176 5.23264z" p-id="13861"></path></svg>