<svg t="1630055656559" class="icon" viewBox="0 0 1024 1024" version="1.1" xmlns="http://www.w3.org/2000/svg" p-id="2452" width="32" height="32"><path d="M1024 256v546.88a64 64 0 0 1-64 64H64a64 64 0 0 1-64-64V256a64 64 0 0 1 64-64h896a64 64 0 0 1 64 64z m-105.92 424.704h-160.576a12.8 12.8 0 0 0-12.8 12.8v67.52c0 7.04 5.76 12.8 12.8 12.8h160.64a12.8 12.8 0 0 0 12.8-12.8v-67.52a12.8 12.8 0 0 0-12.8-12.8z m-232.704 0H524.8a12.8 12.8 0 0 0-12.8 12.8v67.52c0 7.04 5.76 12.8 12.8 12.8h160.64a12.8 12.8 0 0 0 12.8-12.8v-67.52a12.8 12.8 0 0 0-12.8-12.8zM456.704 261.824H101.824a32 32 0 0 0-32 32v75.648a32 32 0 0 0 32 32h354.88a32 32 0 0 0 32-32V293.76a32 32 0 0 0-32-32z" fill="#ffffff" p-id="2453" data-spm-anchor-id="a313x.7781069.0.i18" class="selected"></path></svg>