<svg t="1624522283425" class="icon" viewBox="0 0 1024 1024" version="1.1" xmlns="http://www.w3.org/2000/svg" p-id="23354" width="32" height="32"><path d="M480 128a32 32 0 0 1 32 32v64h384a32 32 0 0 1 32 32v608a32 32 0 0 1-32 32H128a32 32 0 0 1-32-32V256a32 32 0 0 1 32-32h32V160a32 32 0 0 1 32-32h288zM160 256H128v608h768V256H512v1.472H160V256z m423.84 178.048a16 16 0 0 1 7.296 19.2l-1.184 2.592-160 284.096a16 16 0 0 1-29.088-13.088l1.184-2.624 160-284.064a16 16 0 0 1 21.792-6.08z m-204.544 34.624a16 16 0 0 1 1.856 20.416l-1.856 2.24-100.672 100.64 100.672 100.704a16 16 0 0 1 1.856 20.416l-1.856 2.24a16 16 0 0 1-20.416 1.824l-2.208-1.856-112-112a16 16 0 0 1-1.824-20.416l1.824-2.208 112-112a16 16 0 0 1 22.624 0z m269.792-1.824l2.24 1.824 112 112 1.824 2.24a16 16 0 0 1 0 18.176l-1.856 2.24-112 112-2.208 1.824a16 16 0 0 1-18.176 0l-2.24-1.856-1.824-2.24a16 16 0 0 1 0-18.176l1.824-2.208 100.704-100.704-100.704-100.64-1.824-2.24a16 16 0 0 1 22.24-22.24zM480 160H192v64h288V160z" p-id="23355"></path></svg>