<svg t="1630055848394" class="icon" viewBox="0 0 1024 1024" version="1.1" xmlns="http://www.w3.org/2000/svg" p-id="3591" width="32" height="32"><path d="M430.208 96a22.288 22.288 0 0 1 0 44.576H155.424a14.864 14.864 0 0 0-14.848 14.848v713.152c0 8.208 6.64 14.848 14.848 14.848h713.152a14.864 14.864 0 0 0 14.848-14.848V635.984a22.288 22.288 0 1 1 44.576 0v232.592A59.424 59.424 0 0 1 868.576 928H155.424A59.424 59.424 0 0 1 96 868.576V155.424A59.424 59.424 0 0 1 155.424 96z m221.568 0L928 360.16 651.776 624.32v-150.592c-37.024 0-68.64 1.248-95.264 3.744-26.624 2.496-56.992 8.32-91.104 17.888a310.848 310.848 0 0 0-95.68 45.344c-29.536 20.384-56.576 46.592-80.288 78.624-3.328 4.576-7.488 6.656-12.064 5.408-4.992-1.248-7.488-4.576-7.488-10.816 12.064-63.648 26.624-117.312 44.512-160.576 17.888-43.264 41.184-81.12 69.888-113.568 28.704-32.448 64.896-56.16 108.992-71.136 44.096-14.56 96.512-22.048 158.496-22.048V96z" fill="#ffffff" p-id="3592"></path></svg>