<svg t="1630055129931" class="icon" viewBox="0 0 1024 1024" version="1.1" xmlns="http://www.w3.org/2000/svg" p-id="1129" width="32" height="32"><path d="M650.75000029 163.25c0 11.25-3.75000029 22.5-11.25 33.75-7.49999971 7.49999971-18.74999971 15.00000029-30.00000058 15.00000029-11.25 0-22.5-3.75000029-26.24999942-11.25-3.75000029-7.49999971-11.25-22.5-15.00000029-37.50000029-3.75000029-7.49999971-3.75000029-11.25-7.49999971-15.00000029-7.49999971-7.49999971-11.25-11.25-15.00000029-11.25-7.49999971 0-11.25 3.75000029-15.00000029 11.25-3.75000029 7.49999971-7.49999971 15.00000029-11.25 26.25000029l-48.74999942 172.50000029h71.24999942l-11.25 41.24999971h-71.24999942l-71.25000029 251.25000029c-18.74999971 63.74999971-37.50000029 116.25000029-52.49999971 153.74999971-15.00000029 37.50000029-37.50000029 67.5-63.75000058 97.49999971-33.75 18.74999971-71.25000029 33.75-112.5 33.75-29.99999971 0-56.25-7.49999971-71.24999942-22.5-18.74999971-11.25-26.25000029-29.99999971-26.25000029-45 0-15.00000029 3.75000029-26.25000029 15.00000029-33.75 7.49999971-11.25 18.74999971-15.00000029 33.75-14.99999942 18.74999971 0 26.25000029 3.75000029 33.75 14.99999942 3.75000029 11.25 7.49999971 22.5 11.25 37.50000029 0 18.74999971 11.25 29.99999971 22.5 29.99999971 15.00000029 0 26.25000029-7.49999971 33.75-26.24999942 7.49999971-15.00000029 18.74999971-41.24999971 26.24999942-75.00000058L358.25000029 384.49999971h-75.00000058l11.25-41.24999971h75.00000058l7.49999971-26.25000029c11.25-41.24999971 22.5-74.99999971 37.50000029-104.99999942 11.25-29.99999971 33.75-56.25 56.25-78.75 26.25000029-22.5 56.25-33.75 97.49999971-33.75 15.00000029 0 29.99999971 3.75000029 41.24999971 7.49999971 11.25 3.75000029 22.5 11.25 30.00000058 22.5 7.49999971 7.49999971 11.25 18.74999971 11.25 33.75zM962 392.00000029c0 18.74999971-3.75000029 37.50000029-7.49999971 52.49999971h-41.25000058c3.75000029-18.74999971 7.49999971-37.50000029 7.50000058-56.25 0-3.75000029 0-7.49999971-3.75000029-11.25-3.75000029-3.75000029-7.49999971-7.49999971-11.25-7.49999971-3.75000029 0-7.49999971 0-11.25 3.74999942 0 7.49999971-7.49999971 15.00000029-22.5 26.25000029l-78.75 86.24999971 33.75 116.25000029c3.75000029 11.25 7.49999971 22.5 11.25 29.99999971 3.75000029 7.49999971 7.49999971 11.25 15.00000029 11.25 11.25 0 18.74999971-7.49999971 26.24999942-22.5 7.49999971-15.00000029 15.00000029-29.99999971 15.00000029-41.24999971h37.50000029c-7.49999971 33.75-18.74999971 56.25-33.75 78.75-15.00000029 18.74999971-26.25000029 33.75-41.25000058 45-15.00000029 7.49999971-29.99999971 15.00000029-45 15.00000029-22.5 0-37.50000029-7.49999971-48.74999942-22.5-11.25-15.00000029-22.5-37.50000029-30.00000058-67.5l-14.99999942-56.25-90 101.25c-26.25000029 29.99999971-48.75000029 45-67.5 45-26.25000029 0-37.50000029-18.74999971-37.50000029-52.50000058 0-22.5 3.75000029-48.75000029 15.00000029-71.24999942H586.99999971c-11.25 29.99999971-15.00000029 48.75000029-14.99999942 59.99999942 0 7.49999971 3.75000029 15.00000029 7.49999971 15.00000029s11.25-7.49999971 22.5-18.74999971l105.00000029-120.00000058-18.75000058-67.5c-3.75000029-15.00000029-7.49999971-26.25000029-11.25-29.99999971-3.75000029-7.49999971-3.75000029-11.25-11.25-15.00000029-3.75000029-3.75000029-7.49999971-7.49999971-14.99999942-7.49999971-15.00000029 0-29.99999971 22.5-41.25000058 63.74999971h-37.49999942c7.49999971-29.99999971 18.74999971-56.25 29.99999971-74.99999971 11.25-18.74999971 26.25000029-37.50000029 37.50000029-45 15.00000029-11.25 29.99999971-15.00000029 45-15.00000029 22.5 0 37.50000029 7.49999971 52.49999971 26.25000029 15.00000029 15.00000029 22.5 37.50000029 33.75 67.5l7.49999971 22.5L849.5 373.24999971c26.25000029-26.25000029 48.75000029-41.24999971 67.5-41.24999971s33.75 7.49999971 37.50000029 18.74999971c3.75000029 15.00000029 7.49999971 29.99999971 7.49999971 41.25000058z" fill="#ffffff" p-id="1130"></path></svg>