<svg t="1623305778621" class="icon" viewBox="0 0 1024 1024" version="1.1" xmlns="http://www.w3.org/2000/svg" p-id="17055" width="32" height="32"><path d="M507.4 331c-31.1 0-60.4 12.1-82.4 34.1-45.5 45.4-45.5 119.2 0 164.6 22 22 51.3 34.1 82.4 34.1s60.4-12.1 82.4-34.1c45.5-45.4 45.5-119.2 0-164.6-22-22-51.3-34.1-82.4-34.1z m41.4 157.7c-11.1 11-25.8 17.1-41.4 17.1-15.6 0-30.4-6.1-41.4-17.1-22.8-22.8-22.8-59.9 0-82.7 11.4-11.4 26.4-17.1 41.4-17.1s30 5.7 41.4 17.1c22.9 22.8 22.9 59.9 0 82.7zM301.5 664.9c0 16 13 28.9 29 28.9h363.2c16 0 29-13 29-28.9 0-16-13-28.9-29-28.9H330.5c-16 0-29 12.9-29 28.9zM126.1 468.9c16 0 29-13 29-28.9V155.3h275.5c16 0 29-13 29-28.9 0-16-13-28.9-29-28.9H155.1c-32 0-58 26-58 57.9V440c0 15.9 13 28.9 29 28.9zM431.5 869.6H155.1V624.5c0-16-13-28.9-29-28.9s-29 13-29 28.9v245.1c0 31.9 26 57.9 58 57.9h276.4c16 0 29-13 29-28.9s-13-29-29-29zM898.1 595.5c-16 0-29 13-29 28.9v245.1H607.2c-16 0-29 13-29 28.9s13 28.9 29 28.9h261.9c32 0 58-26 58-57.9V624.5c0-16-13-29-29-29zM869.1 97.4H592.4c-16 0-29 13-29 28.9 0 16 13 28.9 29 28.9h276.7v286.4c0 16 13 28.9 29 28.9s29-13 29-28.9V155.3c0-31.9-26-57.9-58-57.9z" p-id="17056"></path></svg>