<svg t="1626398937609" class="icon" viewBox="0 0 1024 1024" version="1.1" xmlns="http://www.w3.org/2000/svg" p-id="9605" width="32" height="32"><path d="M170.65984 42.65984l682.65984 0q53.00224 0 90.50112 37.49888t37.49888 90.50112l0 682.65984q0 53.00224-37.49888 90.50112t-90.50112 37.49888l-682.65984 0q-53.00224 0-90.50112-37.49888t-37.49888-90.50112l0-682.65984q0-53.00224 37.49888-90.50112t90.50112-37.49888zM896 742.99392l-213.34016-213.34016-366.32576 366.32576 537.00608 0q17.67424 0 30.16704-12.4928t12.4928-30.16704l0-110.32576zM853.34016 128l-682.65984 0q-17.67424 0-30.16704 12.4928t-12.4928 30.16704l0 682.65984q0 17.67424 12.4928 30.16704t30.16704 12.4928l25.00608 0 486.99392-486.99392 213.34016 213.34016 0-451.66592q0-17.67424-12.4928-30.16704t-30.16704-12.4928zM341.34016 213.34016q53.00224 0 90.50112 37.49888t37.49888 90.50112-37.49888 90.50112-90.50112 37.49888-90.50112-37.49888-37.49888-90.50112 37.49888-90.50112 90.50112-37.49888zM341.34016 298.65984q-17.67424 0-30.16704 12.4928t-12.4928 30.16704 12.4928 30.16704 30.16704 12.4928 30.16704-12.4928 12.4928-30.16704-12.4928-30.16704-30.16704-12.4928z" p-id="9606"></path></svg>