<svg t="1620442840738" class="icon" viewBox="0 0 1024 1024" version="1.1" xmlns="http://www.w3.org/2000/svg" p-id="875" width="32" height="32"><path d="M372.18986667 879.58414222H175.87313778c-54.75896889 0-99.03217778-49.51608889-99.03217778-110.68302222V223.6416c0-61.16693333 44.27320889-110.68302222 99.03217778-110.68302222H372.18986667c20.97152 0 37.86524445 16.89372445 37.86524444 37.86524444v690.89507556c0 20.97152-16.89372445 37.86524445-37.86524444 37.86524444zM175.87313778 188.68906667c-12.23338667 0-23.30168889 16.89372445-23.30168889 34.95253333V768.31857778c0 20.38897778 12.23338667 34.95253333 23.30168889 34.95253333h158.45148444V188.68906667H175.87313778zM823.66008889 881.91431111h-196.31672889c-20.97152 0-37.86524445-16.89372445-37.86524445-37.86524444V153.15399111c0-20.97152 16.89372445-37.86524445 37.86524445-37.86524444h196.31672889c54.75896889 0 99.03217778 49.51608889 99.03217778 110.68302222v544.67697778c0 61.74947555-44.27320889 111.26556445-99.03217778 111.26556444z m-158.45148444-75.73048889h158.45148444c12.23338667 0 23.30168889-16.89372445 23.30168889-34.95253333V226.55431111c0-20.38897778-12.23338667-34.95253333-23.30168889-34.95253333h-158.45148444v614.58204444z" p-id="876" ></path><path d="M629.67352889 879.58414222H372.18986667c-20.97152 0-37.86524445-16.89372445-37.86524445-37.86524444V153.15399111c0-20.97152 16.89372445-37.86524445 37.86524445-37.86524444h257.48366222c20.97152 0 37.86524445 16.89372445 37.86524444 37.86524444v688.56490667c0 20.97152-16.89372445 37.86524445-37.86524444 37.86524444z m-219.61841778-75.73048889h181.75317334V191.01923555H410.05511111v612.83441778z" p-id="877" ></path></svg>