<svg t="1629965008138" class="icon" viewBox="0 0 1024 1024" version="1.1" xmlns="http://www.w3.org/2000/svg" p-id="8378" width="32" height="32"><path d="M972.151899 946.227848H90.734177V534.294684a37.071392 37.071392 0 0 0 12.443545-22.813165C103.696203 508.370633 152.433418 207.392405 324.050633 207.392405c72.587342 0 133.508861 139.212152 192.356456 273.757975C597.030886 665.211139 680.247089 855.493671 842.531646 855.493671a209.72557 209.72557 0 0 0 95.141265-22.553924 38.886076 38.886076 0 0 0-34.738227-69.476456A132.731139 132.731139 0 0 1 842.531646 777.721519c-111.473418 0-184.32-166.691646-254.833418-327.939241S447.449114 129.620253 324.050633 129.620253c-115.621266 0-188.467848 83.734684-233.316456 171.617215V38.886076a38.886076 38.886076 0 0 0-77.772152 0V985.113924a38.886076 38.886076 0 0 0 38.886076 38.886076H972.151899a38.886076 38.886076 0 0 0 0-77.772152z" p-id="8379"></path></svg>