<svg t="1630054822453" class="icon" viewBox="0 0 1024 1024" version="1.1" xmlns="http://www.w3.org/2000/svg" p-id="2976" width="32" height="32"><path d="M724.8 873.2H173.3c-12.8 0-23.2-10.4-23.2-23.2V299.5c0-23.7-19.3-43-43-43s-43 19.3-43 43V850c0 60.2 49 109.2 109.2 109.2h551.4c23.7 0 43-19.3 43-43s-19.2-43-42.9-43z" p-id="2977" data-spm-anchor-id="a313x.7781069.0.i16" class="selected" fill="#ffffff"></path><path d="M885.6 63.9h-601c-41.2 0-74.7 33.5-74.7 74.7v600.9c0 41.2 33.5 74.7 74.7 74.7h600.9c41.2 0 74.7-33.5 74.7-74.7V138.7c0.1-41.3-33.4-74.8-74.6-74.8z m-11.3 664.4H295.9V149.9h578.4v578.4z" p-id="2978" data-spm-anchor-id="a313x.7781069.0.i15" class="selected" fill="#ffffff"></path></svg>