<svg t="1630055486192" class="icon" viewBox="0 0 1170 1024" version="1.1" xmlns="http://www.w3.org/2000/svg" p-id="2076" width="32" height="32"><path d="M734.939429 38.034286c-23.405714-14.628571-52.077714-16.969143-80.749715-3.510857l-368.64 215.917714h-181.394285c-42.130286 0-76.653714 34.523429-76.653715 76.653714v389.12c0 42.130286 34.523429 76.653714 76.653715 76.653714h181.394285l371.565715 217.673143c10.532571 5.266286 22.235429 7.606857 33.938285 7.606857 15.213714 0 30.427429-4.096 43.300572-12.873142 23.405714-14.628571 37.449143-40.374857 37.449143-67.876572V106.496c0-28.086857-14.043429-53.833143-36.864-68.461714zM257.462857 715.044571l-152.137143 1.170286-1.170285-387.364571H257.462857v386.194285z m435.931429 225.865143L335.286857 730.843429V311.881143l356.937143-208.896 1.755429 834.413714-0.585143 3.510857z m444.708571-431.250285c0 21.650286-17.554286 39.204571-39.204571 39.204571h-177.883429a39.204571 39.204571 0 0 1 0-78.409143h177.883429c21.650286 0 39.204571 17.554286 39.204571 39.204572z m-249.856-198.948572a39.131429 39.131429 0 0 1 10.532572-53.833143L1053.257143 153.892571a38.546286 38.546286 0 0 1 53.833143 10.532572 39.131429 39.131429 0 0 1-10.532572 53.833143L942.08 321.243429a36.205714 36.205714 0 0 1-21.650286 6.436571 36.205714 36.205714 0 0 1-32.182857-16.969143z m208.310857 489.764572c18.139429 11.702857 22.820571 36.278857 10.532572 53.833142a39.789714 39.789714 0 0 1-54.418286 11.117715l-154.477714-102.985143a38.180571 38.180571 0 0 1-10.532572-53.833143 38.180571 38.180571 0 0 1 53.833143-10.532571l155.062857 102.4z" p-id="2077" data-spm-anchor-id="a313x.7781069.0.i12" class="selected" fill="#ffffff"></path></svg>