<svg t="1620461954244" class="icon" viewBox="0 0 1024 1024" version="1.1" xmlns="http://www.w3.org/2000/svg" p-id="4265" width="32" height="32"><path d="M947.768889 262.200889l-185.799111-185.827556a72.846222 72.846222 0 0 0-30.520889-18.289777v-3.100445h-640c-20.224 0-36.579556 16.355556-36.579556 36.579556v841.159111c0 20.195556 16.355556 36.551111 36.579556 36.551111h841.130667c20.252444 0 36.579556-16.327111 36.579555-36.551111V313.856c0-19.427556-7.68-37.944889-21.361778-51.655111zM365.767111 137.272889h292.551111v118.869333H365.738667V137.272889z m521.130667 749.738667H137.159111V137.244444h155.420445v155.448889c0 20.195556 16.355556 36.551111 36.579555 36.551111H694.897778c20.224 0 36.579556-16.327111 36.579555-36.551111V162.190222l155.420445 155.420445v569.372444zM512.028444 432.099556a164.608 164.608 0 0 0-164.579555 164.579555A164.608 164.608 0 0 0 512 761.287111a164.608 164.608 0 0 0 164.551111-164.579555 164.608 164.608 0 0 0-164.551111-164.579556z m0 256a91.392 91.392 0 1 1 0-182.840889 91.392 91.392 0 1 1 0 182.840889z" p-id="4266"></path></svg>