<svg t="1620442004820" class="icon" viewBox="0 0 1024 1024" version="1.1" xmlns="http://www.w3.org/2000/svg" p-id="6497" width="32" height="32"><path d="M960 128H64a32 32 0 0 0-32 32v416a32 32 0 0 0 32 32h896a32 32 0 0 0 32-32V160a32 32 0 0 0-32-32z m-32 416H96V192h832v352zM896 647.264a32 32 0 0 0-32 32V832H160v-152.736a32 32 0 1 0-64 0V864a32 32 0 0 0 32 32h768a32 32 0 0 0 32-32v-184.736a32 32 0 0 0-32-32z" p-id="6498" ></path><path d="M685.92 470.368a31.904 31.904 0 0 0 45.728 0l123.232-126.016a31.968 31.968 0 1 0-45.76-44.736l-100.352 102.624-100.384-102.624a32 32 0 0 0-45.76 44.736l123.296 126.016z" p-id="6499" ></path></svg>