<svg t="1624521210953" class="icon" viewBox="0 0 1024 1024" version="1.1" xmlns="http://www.w3.org/2000/svg" p-id="905" width="32" height="32"><path d="M865.4952507 285.40048003a135.95971117 135.95971117 0 1 1-133.24051801 163.15165395h-87.0142147a135.95971117 135.95971117 0 0 1-266.48103598 0h-87.0142147a135.95971117 135.95971117 0 1 1 0-54.3838842h87.0142147a135.95971117 135.95971117 0 0 1 266.48103598 0h87.0142147a135.95971117 135.95971117 0 0 1 133.24051801-108.76776975z m-706.9905014 54.38388556a81.57582698 81.57582698 0 1 0 0 163.15165396 81.57582698 81.57582698 0 0 0 0-163.15165396z m353.4952507 0a81.57582698 81.57582698 0 1 0 0 163.15165396 81.57582698 81.57582698 0 0 0 0-163.15165396z m353.4952507 0a81.57582698 81.57582698 0 1 0 0 163.15165396 81.57582698 81.57582698 0 0 0 0-163.15165396z"  p-id="906"></path></svg>