<svg t="1624521688334" class="icon" viewBox="0 0 1024 1024" version="1.1" xmlns="http://www.w3.org/2000/svg" p-id="10948" width="32" height="32"><path d="M928 938.666667H96a53.393333 53.393333 0 0 1-53.333333-53.333334V181.333333a53.393333 53.393333 0 0 1 53.333333-53.333333h832a53.393333 53.393333 0 0 1 53.333333 53.333333v704a53.393333 53.393333 0 0 1-53.333333 53.333334z m-245.333333-42.666667h245.333333a10.666667 10.666667 0 0 0 10.666667-10.666667v-202.666666h-256z m-298.666667 0h256v-213.333333H384z m-298.666667-213.333333v202.666666a10.666667 10.666667 0 0 0 10.666667 10.666667h245.333333v-213.333333z m597.333334-42.666667h256V426.666667h-256z m-298.666667 0h256V426.666667H384z m-298.666667 0h256V426.666667H85.333333z m853.333334-256V181.333333a10.666667 10.666667 0 0 0-10.666667-10.666666H96a10.666667 10.666667 0 0 0-10.666667 10.666666v202.666667z"  p-id="10949"></path></svg>