<svg t="1625638589769" class="icon" viewBox="0 0 1024 1024" version="1.1" xmlns="http://www.w3.org/2000/svg" p-id="2599" width="32" height="32"><path d="M908.8 1005.44H115.2a101.76 101.76 0 0 1-101.12-101.76V110.72A101.76 101.76 0 0 1 115.2 8.96h296.96a32.64 32.64 0 0 1 32 32V262.4a32 32 0 0 1-32 32 32 32 0 0 1-32-32v-192H115.2a37.76 37.76 0 0 0-37.12 37.76v795.52a37.76 37.76 0 0 0 37.12 37.76h793.6a37.76 37.76 0 0 0 37.12-37.76V267.52a32 32 0 0 1 32-32 32 32 0 0 1 32 32v636.16a101.76 101.76 0 0 1-101.12 101.76z"  p-id="2600"></path><path d="M977.92 299.52a32.64 32.64 0 0 1-32-32V180.48a37.12 37.12 0 0 0-37.12-37.76H421.12a32 32 0 0 1-32-32 32 32 0 0 1 32-32h487.68a101.76 101.76 0 0 1 101.12 101.76v87.04a32 32 0 0 1-32 32z"  p-id="2601"></path><path d="M977.92 299.52H64a32 32 0 0 1-32-32 32 32 0 0 1 32-32h913.92a32 32 0 0 1 32 32 32 32 0 0 1-32 32z"  p-id="2602"></path><path d="M699.52 299.52a32 32 0 0 1-32-32V110.72a32 32 0 0 1 64 0v156.8a32 32 0 0 1-32 32z"  p-id="2603"></path></svg>