<svg t="1631062140714" class="icon" viewBox="0 0 1024 1024" version="1.1" xmlns="http://www.w3.org/2000/svg" p-id="7520" width="32" height="32"><path d="M352.96 160a32 32 0 0 1 32 32v640a32 32 0 0 1-32 32H96A32 32 0 0 1 64 832V192a32 32 0 0 1 32-32z m576 0a32 32 0 0 1 32 32v640a32 32 0 0 1-32 32H672a32 32 0 0 1-32-32V192a32 32 0 0 1 32-32zM313.408 232H136v560.448h177.408V232z m576 0h-177.408v560.448h177.408V232zM576 518.4V697.6a6.528 6.528 0 0 1-10.56 5.12l-114.944-89.6a6.4 6.4 0 0 1 0-10.048l114.944-89.6C569.6 510.08 576 513.024 576 518.4z m-128-192c0-5.376 6.336-8.32 10.56-4.992l114.944 89.6a6.4 6.4 0 0 1 0 10.112L458.56 510.592A6.528 6.528 0 0 1 448 505.472z" p-id="7521"></path></svg>