<?xml version="1.0" standalone="no"?><!DOCTYPE svg PUBLIC "-//W3C//DTD SVG 1.1//EN" "http://www.w3.org/Graphics/SVG/1.1/DTD/svg11.dtd"><svg t="1631253709628" class="icon" viewBox="0 0 1024 1024" version="1.1" xmlns="http://www.w3.org/2000/svg" p-id="1696" xmlns:xlink="http://www.w3.org/1999/xlink" width="64" height="64"><defs><style type="text/css"></style></defs><path d="M512 800a192 192 0 0 0 192-192c0-106.048-53.952 0-160 0s-224-106.048-224 0a192 192 0 0 0 192 192z" fill="#ffffff" p-id="1697"></path><path d="M512 64c43.456 0 84.256 21.088 109.12 56.384l22.912 32.864 15.456 22.624 23.264 34.848 15.424 23.68 7.648 11.936 15.136 24.096c2.496 4 4.992 8.032 7.456 12.096l14.656 24.256c4.8 8.096 9.568 16.192 14.24 24.32l13.696 24.224C824.704 452.064 864 545.504 864 611.808 864 803.808 706.08 960 512 960S160 803.776 160 611.808c0-66.304 39.296-159.744 92.992-256.48l13.696-24.256c4.672-8.096 9.408-16.192 14.24-24.288l14.656-24.256 15.008-24.16c2.496-4.032 5.056-8 7.584-12.032l15.36-23.84 7.712-11.776 23.264-34.848 15.456-22.624 22.912-32.864A133.568 133.568 0 0 1 512 64z m0 64c-22.656 0-43.968 11.008-56.832 29.248l-17.664 25.28-17.12 24.96-16.512 24.576-15.936 24.16-15.328 23.744-14.656 23.328-14.016 22.816-13.344 22.336-12.672 21.824-6.08 10.72-11.52 20.96c-3.776 6.912-7.36 13.696-10.88 20.416l-10.048 19.776-9.312 19.136-4.352 9.312-8.096 18.144-7.264 17.408C233.216 548.832 224 584.64 224 611.84 224 768.288 353.12 896 512 896s288-127.712 288-284.192c0-36.224-16.416-87.84-46.08-150.528l-9.28-19.136-10.112-19.808a1359.36 1359.36 0 0 0-5.312-10.112l-11.2-20.672c-3.84-7.008-7.84-14.08-11.936-21.28l-12.672-21.824-13.344-22.336-14.016-22.848-7.264-11.584-15.008-23.552-15.616-23.968-16.224-24.384-8.32-12.32-17.152-24.96c-5.792-8.352-11.68-16.8-17.664-25.28A69.568 69.568 0 0 0 512 128z" fill="#ffffff" p-id="1698"></path><path d="M128 448c-35.296 0-64-33.472-64-74.624 0-26.048 24-71.616 44.16-105.28A23.424 23.424 0 0 1 128 256c7.904 0 15.328 4.512 19.84 12.064C168 301.76 192 347.328 192 373.376 192 414.528 163.296 448 128 448zM816 320C771.904 320 736 280.96 736 232.96c0-30.4 30.016-83.584 55.2-122.88A29.632 29.632 0 0 1 816 96c9.888 0 19.136 5.28 24.8 14.08C865.984 149.376 896 202.56 896 232.96c0 48-35.904 87.04-80 87.04z" fill="#ffffff" p-id="1699"></path><path d="M544 608c26.016 0 48.896-6.4 68.608-14.432l8.864-3.84 8.416-3.968 19.104-9.824 13.248-6.944 5.952-2.88 5.472-2.336c20.16-7.872 30.336-1.792 30.336 44.224a192 192 0 1 1-384 0c0-50.112 26.368-52.864 65.376-41.824l9.216 2.784 9.6 3.2 47.424 16.736 5.6 1.92 17.024 5.344 11.52 3.232 11.616 2.88c15.52 3.488 31.2 5.728 46.624 5.728z m-186.56-15.072l-4.832-0.064c-0.416 0.064-0.64 0.32-0.736 0.928l-0.096 1.888L352 608a160 160 0 0 0 320 0l-0.16-7.936-24.96 13.024c-35.2 17.472-66.72 26.912-102.88 26.912-11.136 0-22.528-0.96-34.368-2.816-21.92-3.424-42.752-9.184-70.72-18.816l-40.64-14.272-19.232-6.464-5.504-1.664-6.496-1.696-3.52-0.704-3.136-0.416-2.944-0.224z" fill="#ffffff" p-id="1700"></path></svg>