<svg t="1634713318579" class="icon" viewBox="0 0 1066 1024" version="1.1" xmlns="http://www.w3.org/2000/svg" p-id="1342" width="32" height="32"><path d="M741.47810732 384.02565223V201.71693955a47.7664752 47.7664752 0 0 0-24.2812916-39.80539599L553.99469258 67.97080918a48.5625832 48.5625832 0 0 0-46.57231318 0l-163.20212315 91.95046436a47.7664752 47.7664752 0 0 0-24.28129161 39.80539599v184.2989827a48.16452921 48.16452921 0 0 0 24.28129161 41.79566603l163.20212315 91.55241036a46.57231318 46.57231318 0 0 0 46.57231318 0l163.20212314-91.55241036a48.16452921 48.16452921 0 0 0 24.2812916-41.79566603zM460.0539582 598.57673574l-163.20212314-91.95046436a46.57231318 46.57231318 0 0 0-46.5723123 0L86.28129159 598.57673574a47.36842119 47.36842119 0 0 0-24.28129159 39.805396v182.7067667a47.36842119 47.36842119 0 0 0 24.28129161 39.80539599l163.20212313 91.95046435a48.5625832 48.5625832 0 0 0 46.57231319 0L460.0539582 864.07872646a47.36842119 47.36842119 0 0 0 24.28129161-39.80539599v-184.2989827a47.36842119 47.36842119 0 0 0-24.28129161-41.39761202zM975.13578037 598.57673574l-163.20212227-91.95046436a46.97036719 46.97036719 0 0 0-46.97036718 0l-162.80406914 91.95046437a47.36842119 47.36842119 0 0 0-24.2812916 39.80539599v182.7067667a47.36842119 47.36842119 0 0 0 24.28129159 39.80539599l163.20212315 91.95046435a48.5625832 48.5625832 0 0 0 46.57231318 0l163.20212227-91.95046435a48.16452921 48.16452921 0 0 0 24.2812916-39.80539599v-181.11455069a48.16452921 48.16452921 0 0 0-24.2812916-41.39761201z" p-id="1343"></path></svg>